<svg xmlns="http://www.w3.org/2000/svg" viewBox="0 0 140 100" fill="none" aria-hidden="true">
  <!-- folded map -->
  <path d="M8 18 L38 10 L68 18 L68 72 L38 64 L8 72 Z" fill="#2a1a3a" stroke="#ff007f" stroke-width="2"/>
  <path d="M38 10 V64" stroke="#ff007f" stroke-width="1.5" opacity="0.6"/>
  <circle cx="22" cy="38" r="5" fill="#ccff00"/>
  <path d="M22 38 L48 28" stroke="#ccff00" stroke-width="2" stroke-linecap="round"/>
  <!-- drink cup -->
  <path d="M78 24h28v52c0 4-28 4-28 0V24z" fill="#8b00ff" stroke="#ccff00" stroke-width="2"/>
  <ellipse cx="92" cy="24" rx="14" ry="4" fill="#ccff00"/>
  <path d="M88 36h8M88 44h8M88 52h8" stroke="#fff" stroke-width="2" stroke-linecap="round" opacity="0.7"/>
  <!-- market awning / stall -->
  <path d="M108 48h28v36H108z" fill="#1a1a20" stroke="#ff007f" stroke-width="2"/>
  <path d="M104 48h36l-4-14H108z" fill="#ff007f"/>
  <path d="M108 48h9M117 48h9M126 48h9" stroke="#ccff00" stroke-width="2"/>
  <rect x="114" y="58" width="16" height="14" rx="2" fill="#ccff00" opacity="0.85"/>
  <circle cx="118" cy="63" r="3" fill="#ffd700"/>
  <circle cx="126" cy="66" r="2.5" fill="#ffe566"/>
</svg>
