<svg xmlns="http://www.w3.org/2000/svg" viewBox="0 0 140 100" fill="none" aria-hidden="true">
  <!-- prize wheel -->
  <circle cx="92" cy="50" r="38" fill="#1a1a20" stroke="#ccff00" stroke-width="3"/>
  <circle cx="92" cy="50" r="28" fill="none" stroke="#ff007f" stroke-width="2"/>
  <path d="M92 50 L92 14 A36 36 0 0 1 120 38 Z" fill="#8b00ff"/>
  <path d="M92 50 L120 38 A36 36 0 0 1 118 72 Z" fill="#ff007f"/>
  <path d="M92 50 L118 72 A36 36 0 0 1 66 72 Z" fill="#ccff00"/>
  <path d="M92 50 L66 72 A36 36 0 0 1 64 38 Z" fill="#8b00ff" opacity="0.8"/>
  <path d="M92 50 L64 38 A36 36 0 0 1 92 14 Z" fill="#ff007f" opacity="0.7"/>
  <circle cx="92" cy="50" r="6" fill="#fff"/>
  <polygon points="92,8 96,18 88,18" fill="#ccff00"/>
  <!-- gift box -->
  <rect x="12" y="38" width="52" height="44" rx="4" fill="#8b00ff" stroke="#ccff00" stroke-width="2"/>
  <rect x="12" y="38" width="52" height="12" rx="4" fill="#ff007f"/>
  <rect x="34" y="38" width="8" height="44" fill="#ccff00"/>
  <path d="M38 38 C38 28 28 24 24 30 C20 36 28 42 38 38" fill="#ccff00"/>
  <path d="M38 38 C38 28 48 24 52 30 C56 36 48 42 38 38" fill="#ccff00"/>
  <text x="38" y="72" text-anchor="middle" fill="#fff" font-size="9" font-weight="700" font-family="Arial,sans-serif">WIN!</text>
</svg>
