<svg xmlns="http://www.w3.org/2000/svg" viewBox="0 0 120 56" fill="none" aria-hidden="true">
  <!-- ticket stub -->
  <path d="M8 8h64c0 8-8 8-8 16s8 8 8 16H8c0-8-8-8-8-16s8-8 8-16z" fill="#2a2a30" stroke="#888" stroke-width="2"/>
  <path d="M20 16h36M20 24h28M20 32h36" stroke="#666" stroke-width="2" stroke-linecap="round"/>
  <text x="44" y="44" text-anchor="middle" fill="#ccff00" font-size="8" font-weight="700" font-family="Arial,sans-serif">TICKET</text>
  <!-- chain link -->
  <path d="M82 28h12" stroke="#aaa" stroke-width="3" stroke-linecap="round"/>
  <path d="M94 18a10 10 0 0110 10 10 10 0 01-10 10" stroke="#ccc" stroke-width="3" fill="none"/>
  <path d="M106 28a10 10 0 0110 10 10 10 0 01-10 10" stroke="#ccc" stroke-width="3" fill="none"/>
</svg>
