<svg xmlns="http://www.w3.org/2000/svg" viewBox="0 0 140 110" fill="none" aria-hidden="true">
  <!-- 5 gold stars -->
  <polygon points="18,8 21,16 30,16 23,21 26,30 18,25 10,30 13,21 6,16 15,16" fill="#ffd700" stroke="#fff" stroke-width="0.8"/>
  <polygon points="38,4 41,12 50,12 43,17 46,26 38,21 30,26 33,17 26,12 35,12" fill="#ffd700" stroke="#fff" stroke-width="0.8"/>
  <polygon points="70,2 73,10 82,10 75,15 78,24 70,19 62,24 65,15 58,10 67,10" fill="#ffd700" stroke="#fff" stroke-width="0.8"/>
  <polygon points="102,4 105,12 114,12 107,17 110,26 102,21 94,26 97,17 90,12 99,12" fill="#ffd700" stroke="#fff" stroke-width="0.8"/>
  <polygon points="122,8 125,16 134,16 127,21 130,30 122,25 114,30 117,21 110,16 119,16" fill="#ffd700" stroke="#fff" stroke-width="0.8"/>
  <!-- mini popcorn bucket -->
  <path d="M44 48c0-14 11-24 26-24s26 10 26 24v44H44V48z" fill="#e8193a" stroke="#fff" stroke-width="2"/>
  <path d="M48 48h44v7H48z" fill="#fff"/>
  <path d="M48 62h44v7H48z" fill="#fff"/>
  <rect x="54" y="54" width="32" height="22" rx="2" fill="#111"/>
  <text x="70" y="68" text-anchor="middle" fill="#fff" font-size="8" font-weight="800" font-family="Arial,sans-serif">POP</text>
  <ellipse cx="58" cy="38" rx="9" ry="8" fill="#ffe566"/>
  <ellipse cx="70" cy="32" rx="11" ry="9" fill="#ffd700"/>
  <ellipse cx="82" cy="38" rx="9" ry="8" fill="#ffe566"/>
  <!-- flavor puff -->
  <text x="70" y="108" text-anchor="middle" fill="#8b00ff" font-size="9" font-weight="700" font-family="Arial,sans-serif">RATE YOUR FLAVOR</text>
</svg>
